<svg width="30" height="30" viewBox="0 0 30 30" fill="none" xmlns="http://www.w3.org/2000/svg">
<path d="M16.875 2.34375H13.125C11.2609 2.34592 9.4737 3.08741 8.15555 4.40555C6.83741 5.7237 6.09592 7.51086 6.09375 9.375V20.625C6.09592 22.4891 6.83741 24.2763 8.15555 25.5944C9.4737 26.9126 11.2609 27.6541 13.125 27.6562H16.875C18.7391 27.6541 20.5263 26.9126 21.8444 25.5944C23.1626 24.2763 23.9041 22.4891 23.9062 20.625V9.375C23.9041 7.51086 23.1626 5.7237 21.8444 4.40555C20.5263 3.08741 18.7391 2.34592 16.875 2.34375ZM22.9688 20.625C22.9669 22.2406 22.3243 23.7895 21.1819 24.9319C20.0395 26.0743 18.4906 26.7169 16.875 26.7188H13.125C11.5094 26.7169 9.96052 26.0743 8.81812 24.9319C7.67573 23.7895 7.03311 22.2406 7.03125 20.625V9.375C7.03311 7.75941 7.67573 6.21052 8.81812 5.06812C9.96052 3.92573 11.5094 3.28311 13.125 3.28125H16.875C18.4906 3.28311 20.0395 3.92573 21.1819 5.06812C22.3243 6.21052 22.9669 7.75941 22.9688 9.375V20.625ZM15.4688 8.63203V21.368L17.4809 19.3559C17.5688 19.2679 17.6881 19.2185 17.8125 19.2185C17.9369 19.2185 18.0562 19.2679 18.1441 19.3559C18.2321 19.4438 18.2815 19.5631 18.2815 19.6875C18.2815 19.8119 18.2321 19.9312 18.1441 20.0191L15.3316 22.8316C15.2881 22.8752 15.2364 22.9098 15.1795 22.9334C15.1226 22.957 15.0616 22.9691 15 22.9691C14.9384 22.9691 14.8774 22.957 14.8205 22.9334C14.7636 22.9098 14.7119 22.8752 14.6684 22.8316L11.8559 20.0191C11.7679 19.9312 11.7185 19.8119 11.7185 19.6875C11.7185 19.5631 11.7679 19.4438 11.8559 19.3559C11.9438 19.2679 12.0631 19.2185 12.1875 19.2185C12.3119 19.2185 12.4312 19.2679 12.5191 19.3559L14.5312 21.368V8.63203L12.5191 10.6441C12.4312 10.7321 12.3119 10.7815 12.1875 10.7815C12.0631 10.7815 11.9438 10.7321 11.8559 10.6441C11.7679 10.5562 11.7185 10.4369 11.7185 10.3125C11.7185 10.1881 11.7679 10.0688 11.8559 9.98086L14.6684 7.16836C14.7119 7.12478 14.7636 7.0902 14.8205 7.06661C14.8774 7.04302 14.9384 7.03088 15 7.03088C15.0616 7.03088 15.1226 7.04302 15.1795 7.06661C15.2364 7.0902 15.2881 7.12478 15.3316 7.16836L18.1441 9.98086C18.2321 10.0688 18.2815 10.1881 18.2815 10.3125C18.2815 10.4369 18.2321 10.5562 18.1441 10.6441C18.0562 10.7321 17.9369 10.7815 17.8125 10.7815C17.6881 10.7815 17.5688 10.7321 17.4809 10.6441L15.4688 8.63203Z" fill="black"/>
</svg>
